# xmcd CD database file
# Copyright (C) 1995-1998 Ti Kan
#
# Track frame offsets:
#	150
#	11444
#	25586
#	40744
#	62111
#	76662
#	89622
#	106725
#	125629
#	127006
#	154970
#	157246
#
# Disc length: 2267 seconds
#
# Revision: 1
# Processed by: cddbd v1.4PL0 Copyright (c) Steve Scherf et al.
# Submitted via: CDex 1.30Release
#
DISCID=9308d90c
DTITLE=Dean Seltzer and The Redneck Mothers - Texas Sky
DYEAR=2000
DGENRE=Country
TTITLE0=Poor Lonesome Me (The Beer Drinking Song)
TTITLE1=Texas Sky
TTITLE2=Grandad's Fish Fry
TTITLE3=Around The Corner
TTITLE4=Turn That Radio Down
TTITLE5=Lost and Found
TTITLE6=Just Me and a Longneck Bottle
TTITLE7=Jack and Diane (Live)
TTITLE8=Sing You Bastard (Live)
TTITLE9=Sweet Home Alabama (Live)
TTITLE10=A Toast (Live)
TTITLE11=Lovin' You (is the dumbest thing...) (Live)
EXTD=YEAR: 2000 ID3G:   2
EXTT0=
EXTT1=
EXTT2=
EXTT3=
EXTT4=
EXTT5=
EXTT6=
EXTT7=
EXTT8=
EXTT9=
EXTT10=
EXTT11=
PLAYORDER=
